<svg width="79" height="27" viewBox="0 0 79 27" fill="none" xmlns="http://www.w3.org/2000/svg">
<rect width="26" height="26" rx="4" fill="#7947F7"/>
<circle cx="17.5" cy="17.5" r="6.5" fill="white"/>
<circle cx="6" cy="7" r="3" fill="white"/>
<path d="M39.58 10.78C39.3533 10.78 39.1333 10.74 38.92 10.66C38.72 10.5667 38.54 10.4467 38.38 10.3C38.2333 10.14 38.1133 9.96 38.02 9.76C37.94 9.56 37.9 9.34 37.9 9.1C37.9 8.86 37.94 8.64 38.02 8.44C38.1133 8.24 38.2333 8.06667 38.38 7.92C38.54 7.76 38.72 7.64 38.92 7.56C39.1333 7.46667 39.3533 7.42 39.58 7.42C40.0467 7.42 40.4467 7.58667 40.78 7.92C41.1133 8.24 41.28 8.63333 41.28 9.1C41.28 9.56667 41.1133 9.96667 40.78 10.3C40.4467 10.62 40.0467 10.78 39.58 10.78ZM38.28 22V12.2H40.9V22H38.28ZM54.4558 7.52C54.8291 7.52 55.1758 7.55333 55.4958 7.62C55.8158 7.68667 56.1024 7.77333 56.3558 7.88L55.6158 10.22C55.4824 10.1533 55.3358 10.1 55.1758 10.06C55.0291 10.02 54.8424 10 54.6158 10C54.2291 10 53.9224 10.1267 53.6958 10.38C53.4691 10.6333 53.3558 10.98 53.3558 11.42V12.2H55.7958V14.44H53.3558V22H50.7358V14.44H47.0358V22H44.4158V14.44H42.6558V12.2H44.4158V11.24C44.4158 10.64 44.5024 10.1133 44.6758 9.66C44.8624 9.19333 45.1224 8.80667 45.4558 8.5C45.7891 8.18 46.1824 7.94 46.6358 7.78C47.0891 7.60667 47.5891 7.52 48.1358 7.52C48.4024 7.52 48.6158 7.53333 48.7758 7.56C48.9358 7.58667 49.0891 7.62667 49.2358 7.68L49.0758 10.14C48.9824 10.1 48.8758 10.0667 48.7558 10.04C48.6358 10.0133 48.4824 10 48.2958 10C47.9091 10 47.6024 10.1267 47.3758 10.38C47.1491 10.6333 47.0358 10.98 47.0358 11.42V12.2H50.7358V11.24C50.7358 10.64 50.8224 10.1133 50.9958 9.66C51.1824 9.19333 51.4424 8.80667 51.7758 8.5C52.1091 8.18 52.5024 7.94 52.9558 7.78C53.4091 7.60667 53.9091 7.52 54.4558 7.52ZM66.2281 19.64C65.7748 20.44 65.1615 21.0867 64.3881 21.58C63.6281 22.0733 62.6948 22.32 61.5881 22.32C60.8415 22.32 60.1481 22.1933 59.5081 21.94C58.8815 21.6733 58.3348 21.3067 57.8681 20.84C57.4015 20.3733 57.0348 19.8267 56.7681 19.2C56.5148 18.56 56.3881 17.86 56.3881 17.1C56.3881 16.3933 56.5148 15.7267 56.7681 15.1C57.0215 14.46 57.3748 13.9067 57.8281 13.44C58.2815 12.96 58.8148 12.58 59.4281 12.3C60.0548 12.02 60.7415 11.88 61.4881 11.88C62.2748 11.88 62.9748 12.0133 63.5881 12.28C64.2015 12.5333 64.7148 12.8933 65.1281 13.36C65.5415 13.8133 65.8548 14.3533 66.0681 14.98C66.2815 15.6067 66.3881 16.2867 66.3881 17.02C66.3881 17.1133 66.3881 17.1933 66.3881 17.26C66.3748 17.34 66.3681 17.4133 66.3681 17.48C66.3548 17.5467 66.3481 17.62 66.3481 17.7H58.9681C59.0215 18.1 59.1281 18.4467 59.2881 18.74C59.4615 19.02 59.6681 19.26 59.9081 19.46C60.1615 19.6467 60.4348 19.7867 60.7281 19.88C61.0215 19.96 61.3215 20 61.6281 20C62.2281 20 62.7215 19.8667 63.1081 19.6C63.5081 19.32 63.8215 18.9733 64.0481 18.56L66.2281 19.64ZM63.8481 15.84C63.8348 15.6667 63.7748 15.4733 63.6681 15.26C63.5748 15.0467 63.4281 14.8467 63.2281 14.66C63.0415 14.4733 62.8015 14.32 62.5081 14.2C62.2281 14.08 61.8881 14.02 61.4881 14.02C60.9281 14.02 60.4348 14.18 60.0081 14.5C59.5815 14.82 59.2815 15.2667 59.1081 15.84H63.8481ZM77.4391 19.64C76.9857 20.44 76.3724 21.0867 75.5991 21.58C74.8391 22.0733 73.9057 22.32 72.7991 22.32C72.0524 22.32 71.3591 22.1933 70.7191 21.94C70.0924 21.6733 69.5457 21.3067 69.0791 20.84C68.6124 20.3733 68.2457 19.8267 67.9791 19.2C67.7257 18.56 67.5991 17.86 67.5991 17.1C67.5991 16.3933 67.7257 15.7267 67.9791 15.1C68.2324 14.46 68.5857 13.9067 69.0391 13.44C69.4924 12.96 70.0257 12.58 70.6391 12.3C71.2657 12.02 71.9524 11.88 72.6991 11.88C73.4857 11.88 74.1857 12.0133 74.7991 12.28C75.4124 12.5333 75.9257 12.8933 76.3391 13.36C76.7524 13.8133 77.0657 14.3533 77.2791 14.98C77.4924 15.6067 77.5991 16.2867 77.5991 17.02C77.5991 17.1133 77.5991 17.1933 77.5991 17.26C77.5857 17.34 77.5791 17.4133 77.5791 17.48C77.5657 17.5467 77.5591 17.62 77.5591 17.7H70.1791C70.2324 18.1 70.3391 18.4467 70.4991 18.74C70.6724 19.02 70.8791 19.26 71.1191 19.46C71.3724 19.6467 71.6457 19.7867 71.9391 19.88C72.2324 19.96 72.5324 20 72.8391 20C73.4391 20 73.9324 19.8667 74.3191 19.6C74.7191 19.32 75.0324 18.9733 75.2591 18.56L77.4391 19.64ZM75.0591 15.84C75.0457 15.6667 74.9857 15.4733 74.8791 15.26C74.7857 15.0467 74.6391 14.8467 74.4391 14.66C74.2524 14.4733 74.0124 14.32 73.7191 14.2C73.4391 14.08 73.0991 14.02 72.6991 14.02C72.1391 14.02 71.6457 14.18 71.2191 14.5C70.7924 14.82 70.4924 15.2667 70.3191 15.84H75.0591Z" fill="#304858"/>
</svg>
