<svg width="20" height="23" viewBox="0 0 20 23" fill="none" xmlns="http://www.w3.org/2000/svg">
<path fill-rule="evenodd" clip-rule="evenodd" d="M14 19H18.5858C19.3668 19 20 18.3668 20 17.5858C20 17.2107 19.851 16.851 19.5858 16.5858L18.5858 15.5858C18.2107 15.2107 18 14.702 18 14.1716L18 10.9707C18 6.56859 14.4314 3 10.0293 3C5.61789 3 2.04543 6.58319 2.05867 10.9946L2.06814 14.1476C2.06977 14.6922 1.84928 15.2139 1.45759 15.5922L0.428635 16.586C0.154705 16.8506 2.07459e-06 17.2151 0 17.5959C0 18.3714 0.628628 19 1.40408 19H6C6 21.2091 7.79086 23 10 23C12.2091 23 14 21.2091 14 19ZM17.5251 16.6464L18.3787 17.5H1.64147L2.49967 16.6711C3.18513 16.009 3.57099 15.0961 3.56813 14.1431L3.55867 10.9901C3.54792 7.40887 6.44807 4.5 10.0293 4.5C13.603 4.5 16.5 7.39702 16.5 10.9707L16.5 14.1716C16.5 15.0998 16.8687 15.9901 17.5251 16.6464ZM12.5 19H7.5C7.5 20.3807 8.61929 21.5 10 21.5C11.3807 21.5 12.5 20.3807 12.5 19Z" fill="black"/>
<circle cx="16" cy="4" r="4" fill="#FF2F5E"/>
</svg>
