<svg width="28" height="28" viewBox="0 0 28 28" fill="none" xmlns="http://www.w3.org/2000/svg">
<path fill-rule="evenodd" clip-rule="evenodd" d="M22.5412 7.01734C22.4493 6.92546 22.3268 6.87405 22.1966 6.87405C22.0665 6.87405 21.944 6.92546 21.8521 7.01734L21.4277 7.44061C21.2385 7.63093 21.2385 7.94047 21.4277 8.12966L22.9152 9.61716C23.1066 9.80748 23.4151 9.80638 23.6043 9.61716L24.0287 9.19389C24.2179 9.00358 24.2179 8.69515 24.0287 8.50484L22.5412 7.01734Z" fill="#7947F7"/>
<path fill-rule="evenodd" clip-rule="evenodd" d="M24.6885 9.85349L24.2652 10.2768C23.9972 10.5447 23.6396 10.6935 23.26 10.6935C22.8805 10.6935 22.5239 10.5447 22.256 10.2768L20.7685 8.79035C20.5005 8.52129 20.3529 8.16472 20.3529 7.78521C20.3529 7.40567 20.5005 7.04912 20.7685 6.78116L21.1929 6.35788C21.7288 5.82084 22.6639 5.82084 23.201 6.35788L24.6885 7.84429C24.9565 8.11335 25.1041 8.46992 25.1041 8.84943C25.1041 9.22895 24.9565 9.58553 24.6885 9.85349H24.6885ZM27.1352 6.7746L24.2848 3.92421C23.1331 2.77248 21.2583 2.77357 20.1089 3.92421L14.4215 9.61073C13.2698 10.7624 13.2698 12.6361 14.4215 13.7878L17.2719 16.6382C17.8483 17.2146 18.6041 17.5022 19.361 17.5022C20.1168 17.5022 20.8736 17.2135 21.4489 16.6382L27.1355 10.9528C28.2872 9.80104 28.2872 7.92624 27.1355 6.7746" fill="#7947F7"/>
<path fill-rule="evenodd" clip-rule="evenodd" d="M14.4596 14.4595C14.3699 14.3709 14.2452 14.3249 14.1216 14.3228C13.9948 14.3249 13.8755 14.3785 13.7891 14.4704L11.5699 16.9117C11.4671 17.021 11.4233 17.1742 11.4529 17.3218L11.6705 18.4079L10.5833 18.1903C10.4302 18.1607 10.2727 18.2078 10.1623 18.3182L7.44429 21.0362C7.33382 21.1467 7.28679 21.3042 7.31632 21.4573L7.41586 21.9527L6.9204 21.8543C6.76727 21.8237 6.60867 21.8707 6.49821 21.9812L6.27399 22.2054C5.27868 23.2007 4.57212 24.4487 4.23086 25.8149C4.14446 26.1616 4.24289 26.5192 4.49555 26.7719C4.68805 26.9644 4.94181 27.0672 5.2054 27.0672C5.28744 27.0672 5.37056 27.0574 5.45259 27.0366C6.81868 26.6953 8.06555 25.9877 9.06207 24.9924L11.0593 22.9963C11.1686 22.8858 11.2168 22.7272 11.1861 22.5741L11.0877 22.0797L11.5821 22.1782C11.7396 22.2077 11.9003 22.1596 12.0108 22.0447L16.5936 17.2399C16.7697 17.0562 16.7664 16.7663 16.587 16.587L14.4596 14.4595Z" fill="#7947F7"/>
<path fill-rule="evenodd" clip-rule="evenodd" d="M14.467 1.86703C14.7252 1.86703 14.9341 1.65813 14.9341 1.39999C14.9341 1.14186 14.7252 0.932953 14.467 0.932953C6.3546 0.932953 0 7.49335 0 15.867C0 16.1252 0.208905 16.333 0.46704 16.333C0.725175 16.333 0.93408 16.1252 0.93408 15.867C0.93408 8.01611 6.87764 1.86703 14.467 1.86703Z" fill="#FF2F5E"/>
<path fill-rule="evenodd" clip-rule="evenodd" d="M14.467 4.19999C14.7251 4.19999 14.934 3.99108 14.934 3.73295C14.934 3.47481 14.7251 3.267 14.467 3.267C7.66385 3.267 2.33405 8.80148 2.33405 15.867C2.33405 16.1251 2.54186 16.3329 2.79999 16.3329C3.05813 16.3329 3.26703 16.1251 3.26703 15.867C3.26703 9.32424 8.18663 4.19996 14.467 4.19996" fill="#FF2F5E"/>
<path fill-rule="evenodd" clip-rule="evenodd" d="M14.467 5.6C9.06386 5.6 4.66702 10.2057 4.66702 15.867C4.66702 16.1252 4.87593 16.333 5.13406 16.333C5.39109 16.333 5.60001 16.1252 5.60001 15.867C5.60001 10.7198 9.57797 6.53296 14.4671 6.53296C14.7252 6.53296 14.9341 6.32515 14.9341 6.06702C14.9341 5.80888 14.7252 5.59998 14.4671 5.59998" fill="#FF2F5E"/>
</svg>
